<?xml version="1.0" encoding="UTF-8" standalone="no"?>
<svg
   xmlns:dc="http://purl.org/dc/elements/1.1/"
   xmlns:cc="http://creativecommons.org/ns#"
   xmlns:rdf="http://www.w3.org/1999/02/22-rdf-syntax-ns#"
   xmlns:svg="http://www.w3.org/2000/svg"
   xmlns="http://www.w3.org/2000/svg"
   xmlns:sodipodi="http://sodipodi.sourceforge.net/DTD/sodipodi-0.dtd"
   xmlns:inkscape="http://www.inkscape.org/namespaces/inkscape"
   height="74.999901mm"
   style="clip-rule:evenodd;fill-rule:evenodd;image-rendering:optimizeQuality;shape-rendering:geometricPrecision;text-rendering:geometricPrecision"
   viewBox="0 0 74.999702 74.999901"
   width="74.999702mm"
   xml:space="preserve"
   id="svg2"
   version="1.1"
   inkscape:version="0.91 r13725"
   sodipodi:docname="git.svg"><metadata
     id="metadata13"><rdf:RDF><cc:Work
         rdf:about=""><dc:format>image/svg+xml</dc:format><dc:type
           rdf:resource="http://purl.org/dc/dcmitype/StillImage" /><dc:title></dc:title></cc:Work></rdf:RDF></metadata><sodipodi:namedview
     pagecolor="#ffffff"
     bordercolor="#666666"
     borderopacity="1"
     objecttolerance="10"
     gridtolerance="10"
     guidetolerance="10"
     inkscape:pageopacity="0"
     inkscape:pageshadow="2"
     inkscape:window-width="698"
     inkscape:window-height="480"
     id="namedview11"
     showgrid="false"
     fit-margin-top="0"
     fit-margin-left="0"
     fit-margin-right="0"
     fit-margin-bottom="0"
     inkscape:zoom="0.66604444"
     inkscape:cx="132.8733"
     inkscape:cy="132.87403"
     inkscape:window-x="10"
     inkscape:window-y="34"
     inkscape:window-maximized="0"
     inkscape:current-layer="svg2" /><defs
     id="defs4"><style
       type="text/css"
       id="style6"><![CDATA[
    .fil0 {fill:#008DD2}
   ]]></style></defs><g
     id="Ebene_x0020_1"
     transform="translate(-12.5002,-12.5001)"><path
       class="fil0"
       d="m 49.9976,15.625 c -18.9384,0 -34.2943,15.356 -34.2943,34.2994 0,15.1525 9.8239,28.0089 23.4571,32.5441 1.7152,0.3142 2.2548,-0.7033 2.2548,-1.6119 0,-0.815 0.0171,-3.0905 0,-5.955 -9.5391,2.0749 -11.5162,-4.5163 -11.5162,-4.5163 -1.5583,-3.964 -3.8051,-5.0173 -3.8051,-5.0173 -3.1138,-2.1272 0.2333,-2.0877 0.2333,-2.0877 3.4412,0.2432 5.2554,3.5366 5.2554,3.5366 3.0595,5.2367 8.0256,3.725 9.9785,2.8499 0.3128,-2.2172 1.2009,-3.7293 2.1806,-4.5857 -7.6154,-0.8667 -15.6223,-3.8081 -15.6223,-16.9508 0,-3.7464 1.3359,-6.8065 3.5295,-9.2025 -0.3538,-0.8673 -1.5329,-4.3553 0.3366,-9.0791 0,0 2.8791,-0.9213 9.4297,3.5185 2.7355,-0.7608 5.6712,-1.1403 8.5868,-1.1535 2.9143,0.0132 5.8479,0.3927 8.5866,1.1535 6.5494,-4.438 9.4267,-3.5185 9.4267,-3.5185 1.8676,4.7238 0.691,8.2118 0.339,9.0791 2.194,2.396 3.5266,5.4561 3.5266,9.2025 0,13.1778 -8.0199,16.0756 -15.6627,16.9216 1.2314,1.0617 2.3497,3.1197 2.3497,6.3191 0,4.2885 0,8.3673 0,9.4937 0,0.917 0.5525,1.9326 2.2944,1.5995 C 74.4808,77.921 84.297,65.0727 84.297,49.9244 84.297,30.981 68.941,15.625 49.9976,15.625 Z M 50,12.5001 c 20.7106,0 37.4999,16.7893 37.4999,37.5 C 87.4999,70.7107 70.7106,87.5 50,87.5 29.2894,87.5 12.5002,70.7107 12.5002,50.0001 c 0,-20.7107 16.7892,-37.5 37.4998,-37.5 z"
       id="path9"
       inkscape:connector-curvature="0"
       style="fill:#008dd2" /></g></svg>