<?xml version="1.0" encoding="UTF-8" standalone="no"?>
<svg
   xmlns:dc="http://purl.org/dc/elements/1.1/"
   xmlns:cc="http://creativecommons.org/ns#"
   xmlns:rdf="http://www.w3.org/1999/02/22-rdf-syntax-ns#"
   xmlns:svg="http://www.w3.org/2000/svg"
   xmlns="http://www.w3.org/2000/svg"
   xmlns:sodipodi="http://sodipodi.sourceforge.net/DTD/sodipodi-0.dtd"
   xmlns:inkscape="http://www.inkscape.org/namespaces/inkscape"
   height="1536.181"
   style="clip-rule:evenodd;fill-rule:evenodd;image-rendering:optimizeQuality;shape-rendering:geometricPrecision;text-rendering:geometricPrecision"
   viewBox="0 0 1536.0046 1536.181"
   width="1536.0046"
   xml:space="preserve"
   id="svg2"
   version="1.1"
   inkscape:version="0.91 r13725"
   sodipodi:docname="gmail.svg"><metadata
     id="metadata24"><rdf:RDF><cc:Work
         rdf:about=""><dc:format>image/svg+xml</dc:format><dc:type
           rdf:resource="http://purl.org/dc/dcmitype/StillImage" /><dc:title></dc:title></cc:Work></rdf:RDF></metadata><sodipodi:namedview
     pagecolor="#ffffff"
     bordercolor="#666666"
     borderopacity="1"
     objecttolerance="10"
     gridtolerance="10"
     guidetolerance="10"
     inkscape:pageopacity="0"
     inkscape:pageshadow="2"
     inkscape:window-width="698"
     inkscape:window-height="480"
     id="namedview22"
     showgrid="false"
     fit-margin-top="200"
     fit-margin-left="0"
     fit-margin-right="0"
     fit-margin-bottom="200"
     inkscape:zoom="0.11523438"
     inkscape:cx="-516.33793"
     inkscape:cy="768.08991"
     inkscape:window-x="10"
     inkscape:window-y="34"
     inkscape:window-maximized="0"
     inkscape:current-layer="svg2" /><defs
     id="defs4"><style
       type="text/css"
       id="style6"><![CDATA[
    .fil4 {fill:none}
    .fil2 {fill:#B7B6AD}
    .fil1 {fill:#E75A4D}
    .fil0 {fill:#F7F5ED}
    .fil3 {fill:#B7B6AD;fill-rule:nonzero}
   ]]></style></defs><g
     id="Layer_x0020_1"
     transform="translate(-255.999,-255.909)"><g
       id="_316006816"><polygon
         class="fil0"
         id="_316007416"
         points="1024,1119.6 1027.01,1117.37 1647.03,1580.3 400.968,1580.3 1020.99,1117.37 "
         style="fill:#f7f5ed" /><path
         class="fil0"
         d="m 400.981,1588.85 623.685,-452.8 -3.3898,-2.4201 -0.3661,0.2575 -1.1941,-0.8398 c -57.66851,-40.6146 -115.08601,-81.8682 -172.36701,-123.569 -0.006,0 -0.0106,-0.01 -0.0154,-0.011 -149.032,-108.49499 -297.142,-220.00999 -446.366,-331.13799 l 0,910.52899 0.013,-0.01 z"
         id="_316007536"
         inkscape:connector-curvature="0"
         style="fill:#f7f5ed" /><g
         id="g12"><path
           class="fil1"
           d="m 1647.03,1580.3 43.767,0 c 55.6619,0 101.202,-45.5398 101.202,-101.202 l 0,-921.987 c 0,-55.6619 -45.541,-101.202 -101.202,-101.202 l -43.767,0 0,1124.39 z"
           id="_316007272"
           inkscape:connector-curvature="0"
           style="fill:#e75a4d" /><path
           class="fil1"
           d="m 400.968,1588.86 -43.767,0 c -55.6607,0 -101.202,-45.5398 -101.202,-101.202 l 0,-930.544 c 0,-55.6619 45.5398,-101.202 101.202,-101.202 l 43.767,0 0,1132.95 z"
           id="_316007032"
           inkscape:connector-curvature="0"
           style="fill:#e75a4d" /><polygon
           class="fil0"
           id="_316007080"
           points="1024,916.612 1027.01,918.843 1647.03,455.909 400.968,455.909 1020.99,918.843 "
           style="fill:#f7f5ed" /><path
           class="fil2"
           d="m 1024.67,1136.05 622.366,444.252 0,-901.972 c -102.961,76.676 -205.394,153.536 -307.964,229.462 -97.0902,71.869 -194.303,142.901 -292.207,212.145 l -0.028,0.02 -22.1658,16.0925 z"
           id="_316006984"
           inkscape:connector-curvature="0"
           style="fill:#b7b6ad" /><polygon
           class="fil3"
           id="_316006120"
           points="1030.13,1136.63 403.311,1592.09 398.625,1585.62 1025.45,1130.16 "
           style="fill:#b7b6ad;fill-rule:nonzero" /><path
           class="fil1"
           d="M 1024.67,1136.05 C 788.377,995.297 486.931,740.891 256.003,570.918 l 68.3245,-107.101 74.6469,-6.10394 1.99725,-1.80236 620.02105,462.933 3.0106,-2.2311 3.0106,2.2311 620.021,-462.933 1.9973,1.80236 74.6469,6.10394 68.3245,107.101 c -249.763,183.836 -510.465,396.571 -767.334,565.132 z"
           id="_316006720"
           inkscape:connector-curvature="0"
           style="fill:#e75a4d" /></g></g></g><rect
     class="fil4"
     height="2048"
     width="2048"
     id="rect20"
     x="-255.99899"
     y="-255.909"
     style="fill:none" /></svg>