<?xml version="1.0" encoding="UTF-8" standalone="no"?>
<svg
   xmlns:dc="http://purl.org/dc/elements/1.1/"
   xmlns:cc="http://creativecommons.org/ns#"
   xmlns:rdf="http://www.w3.org/1999/02/22-rdf-syntax-ns#"
   xmlns:svg="http://www.w3.org/2000/svg"
   xmlns="http://www.w3.org/2000/svg"
   xmlns:sodipodi="http://sodipodi.sourceforge.net/DTD/sodipodi-0.dtd"
   xmlns:inkscape="http://www.inkscape.org/namespaces/inkscape"
   enable-background="new 0 0 512 512"
   height="212.578"
   id="Layer_1"
   version="1.1"
   viewBox="0 0 222.459 212.578"
   width="222.459"
   xml:space="preserve"
   inkscape:version="0.91 r13725"
   sodipodi:docname="linkedin.svg"><metadata
     id="metadata30"><rdf:RDF><cc:Work
         rdf:about=""><dc:format>image/svg+xml</dc:format><dc:type
           rdf:resource="http://purl.org/dc/dcmitype/StillImage" /><dc:title></dc:title></cc:Work></rdf:RDF></metadata><defs
     id="defs28" /><sodipodi:namedview
     pagecolor="#ffffff"
     bordercolor="#666666"
     borderopacity="1"
     objecttolerance="10"
     gridtolerance="10"
     guidetolerance="10"
     inkscape:pageopacity="0"
     inkscape:pageshadow="2"
     inkscape:window-width="1272"
     inkscape:window-height="599"
     id="namedview26"
     showgrid="false"
     fit-margin-top="0"
     fit-margin-left="0"
     fit-margin-right="0"
     fit-margin-bottom="0"
     inkscape:zoom="0.4609375"
     inkscape:cx="111.23"
     inkscape:cy="106.289"
     inkscape:window-x="10"
     inkscape:window-y="34"
     inkscape:window-maximized="0"
     inkscape:current-layer="Layer_1" /><g
     id="g3"
     transform="translate(-144.77,-149.711)"><linearGradient
       gradientUnits="userSpaceOnUse"
       id="SVGID_1_"
       x1="85.2425"
       x2="311.87939"
       y1="204.3735"
       y2="431.01031"><stop
         offset="0"
         style="stop-color:#517FA6"
         id="stop6" /><stop
         offset="1"
         style="stop-color:#426699"
         id="stop8" /></linearGradient><rect
       height="143.429"
       width="47.678001"
       x="147.601"
       y="218.85699"
       id="rect10"
       style="fill:url(#SVGID_1_)" /><linearGradient
       gradientUnits="userSpaceOnUse"
       id="SVGID_2_"
       x1="143.3512"
       x2="369.98801"
       y1="146.2648"
       y2="372.9017"><stop
         offset="0"
         style="stop-color:#517FA6"
         id="stop13" /><stop
         offset="1"
         style="stop-color:#426699"
         id="stop15" /></linearGradient><path
       d="m 171.757,149.711 c -16.312,0 -26.987,10.703 -26.987,24.776 0,13.772 10.361,24.797 26.358,24.797 l 0.321,0 c 16.626,0 26.974,-11.025 26.974,-24.797 -0.314,-14.073 -10.348,-24.776 -26.666,-24.776 z"
       id="path17"
       inkscape:connector-curvature="0"
       style="fill:url(#SVGID_2_)" /><linearGradient
       gradientUnits="userSpaceOnUse"
       id="SVGID_3_"
       x1="139.73981"
       x2="366.37671"
       y1="149.87621"
       y2="376.513"><stop
         offset="0"
         style="stop-color:#517FA6"
         id="stop20" /><stop
         offset="1"
         style="stop-color:#426699"
         id="stop22" /></linearGradient><path
       d="m 312.32,215.486 c -25.328,0 -36.647,13.943 -42.98,23.7 l 0,0.465 -0.308,0 c 0.089,-0.146 0.219,-0.315 0.308,-0.465 l 0,-20.328 -47.683,0 c 0.636,13.459 0,143.429 0,143.429 l 47.685,0 0,-80.103 c 0,-4.295 0.321,-8.558 1.58,-11.627 3.454,-8.574 11.294,-17.44 24.471,-17.44 17.255,0 24.158,13.159 24.158,32.434 l 0,76.738 47.678,0 0,-82.25 c -0.002,-44.056 -23.524,-64.553 -54.909,-64.553 z"
       id="path24"
       inkscape:connector-curvature="0"
       style="fill:url(#SVGID_3_)" /></g></svg>